<svg xmlns="http://www.w3.org/2000/svg" width="160" height="160" viewBox="0 0 160 160" role="img" aria-label="ember rare gauntlet">
  <defs>
    <linearGradient id="steel" x1="16" y1="27" x2="142" y2="132" gradientUnits="userSpaceOnUse"><stop stop-color="#facc15"/><stop offset=".35" stop-color="#dc2626"/><stop offset="1" stop-color="#1c1917"/></linearGradient>
    <radialGradient id="core" cx="91" cy="76" r="52" gradientUnits="userSpaceOnUse"><stop stop-color="#fff7ed"/><stop offset=".34" stop-color="#facc15"/><stop offset=".7" stop-color="#dc2626"/><stop offset="1" stop-color="#450a0a"/></radialGradient>
    <filter id="glow"><feGaussianBlur stdDeviation="5" result="b"/><feMerge><feMergeNode in="b"/><feMergeNode in="SourceGraphic"/></feMerge></filter>
  </defs>
  <path d="M24 89c9-43 43-70 86-68 18 1 34 16 36 34 3 24-13 48-36 58-40 17-76 8-86-24Z" fill="url(#steel)" stroke="#fde68a" stroke-width="3"/>
  <path d="M49 90c12-27 35-45 64-44 11 1 21 10 23 22 2 14-8 28-21 34-28 13-56 8-66-12Z" fill="url(#core)" filter="url(#glow)"/>
  <path d="M102 18 151 0l-31 53Zm29 34 45-8-39 31Zm-8 36 40 14-44 11Z" fill="#fef3c7" stroke="#f97316" stroke-width="3"/>
  <path d="M18 100 0 124l45 23 27-29Z" fill="#292524" stroke="#dc2626" stroke-width="4"/>
  <path d="M40 120c25 16 54 20 84 10" fill="none" stroke="#fef3c7" stroke-width="6" stroke-linecap="round"/>
</svg>
