<svg xmlns="http://www.w3.org/2000/svg" width="160" height="160" viewBox="0 0 160 160" role="img" aria-label="ember novice gauntlet">
  <defs>
    <linearGradient id="steel" x1="22" y1="32" x2="136" y2="124" gradientUnits="userSpaceOnUse"><stop stop-color="#d97706"/><stop offset=".45" stop-color="#7c2d12"/><stop offset="1" stop-color="#111827"/></linearGradient>
    <radialGradient id="core" cx="92" cy="78" r="44" gradientUnits="userSpaceOnUse"><stop stop-color="#fed7aa"/><stop offset=".42" stop-color="#fb923c"/><stop offset="1" stop-color="#7c2d12"/></radialGradient>
    <filter id="glow"><feGaussianBlur stdDeviation="3" result="b"/><feMerge><feMergeNode in="b"/><feMergeNode in="SourceGraphic"/></feMerge></filter>
  </defs>
  <path d="M34 93c10-31 35-50 69-51 14 0 28 10 31 24 3 16-6 34-22 43-32 18-68 13-78-16Z" fill="url(#steel)" stroke="#fbbf24" stroke-width="3"/>
  <path d="M52 95c11-19 29-30 53-31 9 0 17 6 19 15 2 10-4 20-14 25-22 11-47 8-58-9Z" fill="url(#core)" filter="url(#glow)" opacity=".88"/>
  <path d="M104 39 137 22l-20 36Zm19 22 35-3-31 20Zm-1 28 32 12-36 6Z" fill="#fbbf24" stroke="#fff7ed" stroke-width="2"/>
  <path d="M28 104 9 118l39 18 18-20Z" fill="#292524" stroke="#f59e0b" stroke-width="3"/>
  <path d="M45 118c16 10 36 15 59 12" fill="none" stroke="#fed7aa" stroke-width="5" stroke-linecap="round" opacity=".8"/>
</svg>
